<?xml version="1.0" encoding="iso-8859-1"?>
<!-- Generator: Adobe Illustrator 19.0.0, SVG Export Plug-In . SVG Version: 6.00 Build 0)  -->
<svg version="1.1" id="Capa_1" xmlns="http://www.w3.org/2000/svg" xmlns:xlink="http://www.w3.org/1999/xlink" x="0px" y="0px"
	 viewBox="0 0 511.634 511.634" style="enable-background:new 0 0 511.634 511.634;" xml:space="preserve">
<g style="opacity:0.5;">
	<path style="fill:#FFCE54;" d="M471.655,267.808c0,119.243-96.603,215.847-215.846,215.847S39.963,387.051,39.963,267.808
		c0-119.239,96.603-215.842,215.846-215.842S471.655,148.569,471.655,267.808z"/>
</g>
<g style="opacity:0.4;">
	<path style="fill:#FFCE54;" d="M443.675,267.808c0,103.7-84.089,187.866-187.866,187.866
		c-103.778,0-187.866-84.166-187.866-187.866c0-103.699,84.088-187.862,187.866-187.862S443.675,164.109,443.675,267.808z"/>
</g>
<g style="opacity:0.6;">
	<path style="fill:#FFCE54;" d="M415.695,267.808c0,88.227-71.551,159.886-159.886,159.886
		c-88.336,0-159.886-71.659-159.886-159.886c0-88.226,71.55-159.882,159.886-159.882
		C344.144,107.926,415.695,179.583,415.695,267.808z"/>
</g>
<polygon style="fill:#AAB2BD;" points="323.76,463.669 307.772,479.657 203.846,479.657 187.857,463.669 187.857,407.709 
	323.76,407.709 "/>
<g style="opacity:0.4;">
	<polygon style="fill:#FFFFFF;" points="203.846,407.709 187.857,407.709 187.857,463.669 203.846,479.657 219.835,479.657 
		203.846,463.669 	"/>
</g>
<g style="opacity:0.3;">
	<polygon points="307.772,407.709 323.76,407.709 323.76,463.669 307.772,479.657 291.783,479.657 307.772,463.669 	"/>
</g>
<path style="fill:#E6E9ED;" d="M387.714,267.808c0-72.85-59.059-131.906-131.905-131.906s-131.906,59.056-131.906,131.906
	c0,47.958,25.677,89.812,63.954,112.904v26.996H323.76v-26.996C362.038,357.62,387.714,315.766,387.714,267.808z"/>
<g>
	<path style="fill:#FFFFFF;" d="M255.809,135.902c2.701,0,5.348,0.223,8.002,0.402c-69.107,4.153-123.919,61.351-123.919,131.504
		c0,71.16,47.965,112.904,47.965,112.904c-38.277-23.093-63.954-64.946-63.954-112.904
		C123.903,194.958,182.963,135.902,255.809,135.902z"/>
	<path style="fill:#FFFFFF;" d="M255.817,135.902c-2.701,0-5.348,0.223-8.002,0.402c69.107,4.153,123.919,61.351,123.919,131.504
		c0,71.16-47.966,112.904-47.966,112.904c38.277-23.093,63.954-64.946,63.954-112.904
		C387.722,194.958,328.664,135.902,255.817,135.902z"/>
</g>
<path style="fill:#656D78;" d="M219.835,479.657c0,0,7.994,15.989,35.975,15.989c27.979,0,35.974-15.989,35.974-15.989H219.835z"/>
<g style="opacity:0.4;">
	<path style="fill:#FFFFFF;" d="M235.823,479.657h-15.988c0,0,7.994,15.989,35.975,15.989c2.888,0,5.52-0.203,7.994-0.516
		C242.303,492.476,235.823,479.657,235.823,479.657z"/>
</g>
<g style="opacity:0.3;">
	<path d="M275.795,479.657h15.988c0,0-7.994,15.989-35.974,15.989c-2.889,0-5.52-0.203-7.995-0.516
		C269.315,492.476,275.795,479.657,275.795,479.657z"/>
</g>
<g style="opacity:0.2;">
	<rect x="187.857" y="399.717" width="135.9" height="7.994"/>
</g>
<g>
	<path style="fill:#EC87C0;" d="M319.771,231.834c8.877,0,15.988,7.116,15.988,15.989c0,8.872-7.111,15.988-15.988,15.988
		c6.636,0,11.991,5.355,11.991,11.991c0,4.958-2.959,9.119-7.198,11.031c5.598,10.634,3.92,23.905-4.949,32.781
		c-6.636,6.55-15.59,9.188-24.146,7.831h-0.078c-0.641,3.833-2.482,7.518-5.441,10.469c-7.83,7.838-20.462,7.838-28.293,0
		c-3.763-3.833-5.761-8.791-5.839-13.826v-36.295v-55.959v-31.977c0-8.873,7.112-15.989,15.988-15.989s15.988,7.116,15.988,15.989
		c0,2.236-0.476,4.317-1.28,6.233c3.521-3.115,8.158-4.953,13.271-4.953c11.109,0,19.986,8.873,19.986,19.985
		c0,4.075-1.202,7.913-3.357,11.031C317.531,231.994,318.655,231.834,319.771,231.834z"/>
	<path style="fill:#EC87C0;" d="M255.817,287.794v36.295c-0.078,5.035-1.999,9.993-5.84,13.826c-7.83,7.838-20.462,7.838-28.292,0
		c-2.959-2.951-4.802-6.636-5.442-10.469h-0.078c-8.471,1.357-17.511-1.281-24.062-7.831c-8.876-8.876-10.555-22.147-5.035-32.781
		c-4.239-1.912-7.198-6.073-7.198-11.031c0-6.636,5.355-11.991,11.992-11.991c-8.876,0-15.989-7.116-15.989-15.988
		c0-8.873,7.112-15.989,15.989-15.989c1.202,0,2.319,0.16,3.357,0.32c-2.155-3.119-3.357-6.956-3.357-11.031
		c0-11.113,8.955-19.985,19.986-19.985c5.113,0,9.751,1.838,13.271,4.953c-0.804-1.916-1.28-3.997-1.28-6.233
		c0-8.873,7.112-15.989,15.989-15.989s15.989,7.114,15.989,15.987v31.977V287.794z"/>
</g>
<g style="opacity:0.5;">
	<path style="fill:#FFFFFF;" d="M233.114,206.09c-0.804-1.916-1.28-3.997-1.28-6.233c0-7.483,5.083-13.662,11.992-15.431
		c-1.28-0.328-2.608-0.558-3.997-0.558c-8.876,0-15.989,7.116-15.989,15.989c0,0.601,0.117,1.163,0.18,1.741
		C227.462,202.308,230.585,203.854,233.114,206.09z"/>
	<path style="fill:#FFFFFF;" d="M229.679,337.915c-2.959-2.951-4.802-6.636-5.441-10.469h-0.078
		c-8.471,1.357-17.511-1.281-24.061-7.831c-8.876-8.876-10.555-22.147-5.036-32.781c-4.239-1.912-7.198-6.073-7.198-11.031
		c0-6.636,5.356-11.991,11.992-11.991c-8.876,0-15.989-7.116-15.989-15.988c0-8.873,7.112-15.989,15.989-15.989
		c1.203,0,2.319,0.16,3.357,0.32c-2.154-3.119-3.357-6.956-3.357-11.031c0-9.727,6.862-17.737,15.965-19.583
		c-1.28-0.25-2.607-0.402-3.974-0.402c-11.031,0-19.986,8.873-19.986,19.985c0,4.075,1.202,7.913,3.357,11.031
		c-1.038-0.16-2.155-0.32-3.357-0.32c-8.876,0-15.989,7.116-15.989,15.989c0,8.872,7.112,15.988,15.989,15.988
		c-6.636,0-11.992,5.355-11.992,11.991c0,4.958,2.959,9.119,7.198,11.031c-5.52,10.634-3.841,23.905,5.035,32.781
		c6.55,6.55,15.591,9.188,24.062,7.831h0.078c0.64,3.833,2.483,7.518,5.442,10.469c4.941,4.949,11.788,6.753,18.143,5.457
		C236.112,342.614,232.568,340.811,229.679,337.915z"/>
</g>
<g style="opacity:0.5;">
	<path style="fill:#FFFFFF;" d="M278.519,206.09c0.805-1.916,1.28-3.997,1.28-6.233c0-7.483-5.082-13.662-11.991-15.431
		c1.28-0.328,2.607-0.558,3.997-0.558c8.876,0,15.988,7.116,15.988,15.989c0,0.601-0.116,1.163-0.179,1.741
		C284.171,202.308,281.048,203.854,278.519,206.09z"/>
	<path style="fill:#FFFFFF;" d="M281.955,337.915c2.959-2.951,4.801-6.636,5.441-10.469h0.078c8.47,1.357,17.511-1.281,24.061-7.831
		c8.877-8.876,10.555-22.147,5.035-32.781c4.239-1.912,7.198-6.073,7.198-11.031c0-6.636-5.355-11.991-11.991-11.991
		c8.876,0,15.988-7.116,15.988-15.988c0-8.873-7.112-15.989-15.988-15.989c-1.202,0-2.318,0.16-3.357,0.32
		c2.155-3.119,3.357-6.956,3.357-11.031c0-9.727-6.862-17.737-15.965-19.583c1.279-0.25,2.607-0.402,3.973-0.402
		c11.031,0,19.986,8.873,19.986,19.985c0,4.075-1.202,7.913-3.357,11.031c1.039-0.16,2.155-0.32,3.357-0.32
		c8.877,0,15.988,7.116,15.988,15.989c0,8.872-7.111,15.988-15.988,15.988c6.636,0,11.991,5.355,11.991,11.991
		c0,4.958-2.959,9.119-7.198,11.031c5.52,10.634,3.842,23.905-5.035,32.781c-6.55,6.55-15.59,9.188-24.061,7.831h-0.078
		c-0.641,3.833-2.482,7.518-5.441,10.469c-4.942,4.949-11.789,6.753-18.144,5.457C275.521,342.614,279.066,340.811,281.955,337.915z
		"/>
</g>
<g>
	<path style="fill:#3A3847;" d="M235.831,347.791c-6.401,0-12.428-2.507-16.972-7.05c-3.49-3.49-5.762-7.861-6.558-12.632
		c-1.569-7.619,0.875-15.646,6.558-21.313c1.561-1.562,4.091-1.562,5.652,0c1.562,1.562,1.562,4.091,0,5.651
		c-3.779,3.771-5.402,9.072-4.348,14.193c0.546,3.271,2.037,6.145,4.348,8.447c6.074,6.074,16.566,6.074,22.64,0
		c2.943-2.936,4.606-6.87,4.668-11.063c0.039-2.209,1.858-3.786,4.06-3.935c2.209,0.039,3.966,1.851,3.935,4.06
		c-0.102,6.285-2.584,12.171-7.011,16.59C248.259,345.284,242.233,347.791,235.831,347.791z"/>
	<path style="fill:#3A3847;" d="M211.848,245.106c-8.072,0-15.544-4.021-19.97-10.754c-2.608-3.775-4.013-8.377-4.013-13.229
		c0-13.225,10.758-23.982,23.983-23.982c5.925,0,11.577,2.115,15.918,5.957c1.655,1.464,1.812,3.989,0.344,5.644
		c-1.468,1.647-3.997,1.796-5.637,0.344c-2.881-2.549-6.651-3.95-10.625-3.95c-8.814,0-15.989,7.171-15.989,15.988
		c0,3.225,0.914,6.25,2.646,8.76c2.998,4.555,7.963,7.229,13.342,7.229c2.209,0,3.997,1.788,3.997,3.998
		C215.845,243.318,214.057,245.106,211.848,245.106z"/>
	<path style="fill:#3A3847;" d="M187.069,290.831c-0.555,0-1.108-0.117-1.647-0.352c-5.886-2.67-9.548-8.29-9.548-14.677
		c0-8.821,7.175-15.988,15.989-15.988c2.209,0,3.997,1.788,3.997,3.997s-1.788,3.997-3.997,3.997c-4.411,0-7.995,3.591-7.995,7.994
		c0,3.201,1.858,6.043,4.849,7.386c2.014,0.913,2.904,3.279,1.998,5.293C190.044,289.957,188.591,290.831,187.069,290.831z"/>
	<path style="fill:#3A3847;" d="M191.862,267.808c-11.023,0-19.986-8.966-19.986-19.985s8.962-19.986,19.986-19.986
		c1.421,0,2.74,0.179,3.966,0.367c2.178,0.336,3.677,2.377,3.341,4.56c-0.336,2.182-2.396,3.669-4.559,3.341
		c-0.851-0.132-1.764-0.273-2.748-0.273c-6.613,0-11.992,5.379-11.992,11.992c0,6.612,5.379,11.991,11.992,11.991
		c2.209,0,3.997,1.788,3.997,3.997S194.072,267.808,191.862,267.808z"/>
	<path style="fill:#3A3847;" d="M239.828,219.842c-8.088,0-15.31-4.793-18.401-12.214c-1.046-2.51-1.585-5.125-1.585-7.771
		c0-11.02,8.962-19.986,19.986-19.986c11.023,0,19.986,8.966,19.986,19.986c0,2.209-1.788,3.997-3.997,3.997
		c-2.21,0-3.998-1.788-3.998-3.997c0-6.612-5.379-11.992-11.991-11.992c-6.613,0-11.992,5.379-11.992,11.992
		c0,1.577,0.328,3.154,0.968,4.688c1.85,4.442,6.175,7.303,11.023,7.303c2.209,0,3.997,1.788,3.997,3.997
		C243.825,218.055,242.038,219.842,239.828,219.842z"/>
	<path style="fill:#3A3847;" d="M211.825,331.786c-8.361,0.008-16.527-3.325-22.547-9.345c-9.922-9.915-12.233-24.966-5.753-37.45
		c1.476-2.88,3.419-5.534,5.761-7.861c12.429-12.443,32.727-12.404,45.218,0.078c1.562,1.562,1.562,4.091,0,5.652
		c-1.561,1.562-4.091,1.562-5.652,0c-9.376-9.368-24.592-9.399-33.921-0.078c-1.756,1.749-3.201,3.732-4.31,5.879
		c-4.871,9.392-3.138,20.681,4.31,28.129c5.395,5.395,13.046,7.916,20.603,6.713c2.131-0.374,4.224,1.125,4.583,3.311
		c0.343,2.178-1.14,4.231-3.318,4.575C215.143,331.653,213.48,331.786,211.825,331.786z"/>
	<path style="fill:#3A3847;" d="M275.802,347.791c-6.401,0-12.429-2.507-16.973-7.05c-4.434-4.513-6.917-10.398-7.01-16.59
		c-0.031-2.209,1.725-4.021,3.935-4.06c2.264,0.102,4.028,1.726,4.06,3.935c0.063,4.13,1.732,8.072,4.699,11.094
		c6.012,6.012,16.535,6.043,22.609-0.031c2.311-2.303,3.802-5.176,4.325-8.307c1.077-5.262-0.547-10.563-4.325-14.334
		c-1.562-1.561-1.562-4.09,0-5.651s4.091-1.562,5.652,0c5.684,5.667,8.127,13.693,6.534,21.453
		c-0.772,4.63-3.045,9.001-6.534,12.491C288.231,345.284,282.205,347.791,275.802,347.791z"/>
	<path style="fill:#3A3847;" d="M299.785,245.106c-2.209,0-3.996-1.788-3.996-3.997c0-2.21,1.787-3.998,3.996-3.998
		c5.38,0,10.345-2.674,13.288-7.155c1.788-2.584,2.701-5.609,2.701-8.834c0-8.966-7.026-15.988-15.989-15.988
		c-3.973,0-7.744,1.401-10.625,3.95c-1.639,1.452-4.176,1.304-5.637-0.344c-1.467-1.655-1.311-4.18,0.344-5.644
		c4.341-3.841,9.993-5.957,15.918-5.957c13.226,0,23.983,10.758,23.983,23.982c0,4.853-1.405,9.455-4.067,13.303
		C315.329,241.086,307.858,245.106,299.785,245.106z"/>
	<path style="fill:#3A3847;" d="M324.564,290.831c-1.521,0-2.975-0.874-3.646-2.35c-0.905-2.014-0.016-4.38,1.999-5.293
		c2.99-1.343,4.848-4.185,4.848-7.386c0-4.403-3.583-7.994-7.994-7.994c-2.209,0-3.997-1.788-3.997-3.997s1.788-3.997,3.997-3.997
		c8.814,0,15.988,7.167,15.988,15.988c0,6.387-3.661,12.007-9.548,14.677C325.673,290.713,325.119,290.831,324.564,290.831z"/>
	<path style="fill:#3A3847;" d="M319.771,267.808c-2.209,0-3.997-1.788-3.997-3.997s1.788-3.997,3.997-3.997
		c6.612,0,11.991-5.379,11.991-11.991c0-6.613-5.379-11.992-11.991-11.992c-0.929,0-1.858,0.148-2.787,0.281
		c-2.146,0.305-4.216-1.198-4.528-3.392c-0.312-2.186,1.202-4.208,3.389-4.524c1.304-0.188,2.623-0.359,3.927-0.359
		c11.023,0,19.985,8.966,19.985,19.986S330.795,267.808,319.771,267.808z"/>
	<path style="fill:#3A3847;" d="M271.805,219.842c-2.21,0-3.997-1.788-3.997-3.997s1.787-3.997,3.997-3.997
		c4.849,0,9.173-2.861,11.016-7.295c0.647-1.542,0.976-3.119,0.976-4.696c0-6.612-5.379-11.992-11.991-11.992
		s-11.991,5.379-11.991,11.992c0,2.209-1.788,3.997-3.997,3.997c-2.21,0-3.998-1.788-3.998-3.997
		c0-11.02,8.962-19.986,19.986-19.986s19.985,8.966,19.985,19.986c0,2.646-0.538,5.262-1.592,7.779
		C287.115,215.049,279.893,219.842,271.805,219.842z"/>
	<path style="fill:#3A3847;" d="M299.925,331.794c-1.686,0-3.38-0.125-5.082-0.405c-2.186-0.344-3.669-2.39-3.326-4.575
		c0.344-2.178,2.444-3.685,4.575-3.311c7.581,1.172,15.153-1.248,20.712-6.736c7.44-7.44,9.143-18.729,4.224-28.066
		c-1.054-2.186-2.459-4.138-4.239-5.918c-9.329-9.321-24.545-9.282-33.921,0.078c-1.562,1.562-4.091,1.562-5.652,0
		s-1.562-4.091,0-5.652c12.499-12.49,32.789-12.521,45.226-0.078c2.412,2.42,4.341,5.099,5.723,7.963
		c6.495,12.336,4.224,27.395-5.723,37.349C316.281,328.515,308.287,331.794,299.925,331.794z"/>
	<path style="fill:#3A3847;" d="M307.78,483.655H203.854c-1.062,0-2.077-0.422-2.826-1.172l-15.989-15.988
		c-0.75-0.75-1.171-1.765-1.171-2.826v-55.96c0-2.21,1.788-3.997,3.997-3.997c2.21,0,3.998,1.787,3.998,3.997v54.305l13.646,13.646
		h100.616l13.646-13.646v-54.305c0-2.21,1.788-3.997,3.997-3.997c2.21,0,3.997,1.787,3.997,3.997v55.96
		c0,1.062-0.422,2.076-1.171,2.826l-15.988,15.988C309.856,483.233,308.841,483.655,307.78,483.655z"/>
	<path style="fill:#3A3847;" d="M179.871,435.688c-2.123,0-3.888-1.662-3.989-3.794c-0.109-2.209,1.585-4.091,3.794-4.2l7.995-0.391
		l143.897-7.604c2.21-0.133,4.083,1.601,4.185,3.795c0.109,2.209-1.584,4.09-3.794,4.199l-7.994,0.391l-143.897,7.604
		C180.004,435.688,179.933,435.688,179.871,435.688z"/>
	<path style="fill:#3A3847;" d="M179.871,459.671c-2.123,0-3.888-1.663-3.989-3.794c-0.109-2.21,1.585-4.091,3.794-4.2l7.995-0.391
		l143.897-7.604c2.21-0.07,4.083,1.601,4.185,3.794c0.109,2.209-1.584,4.091-3.794,4.2l-7.994,0.39l-143.897,7.604
		C180.004,459.671,179.933,459.671,179.871,459.671z"/>
	<path style="fill:#3A3847;" d="M323.768,411.706H187.865c-2.209,0-3.997-1.788-3.997-3.997V382.93
		c-40.096-25.076-63.954-67.936-63.954-115.121c0-74.938,60.964-135.903,135.903-135.903c74.938,0,135.902,60.964,135.902,135.903
		c0,47.186-23.857,90.045-63.954,115.121v24.779C327.765,409.918,325.978,411.706,323.768,411.706z M191.862,403.712h127.909V380.69
		c0-1.397,0.734-2.693,1.928-3.428c38.84-23.429,62.026-64.345,62.026-109.453c0-70.527-57.381-127.908-127.908-127.908
		c-70.528,0-127.909,57.381-127.909,127.908c0,45.108,23.187,86.024,62.026,109.453c1.194,0.734,1.928,2.03,1.928,3.428V403.712z"/>
	<path style="fill:#3A3847;" d="M255.817,499.643c-30.104,0-39.176-17.457-39.55-18.198c-0.984-1.976-0.187-4.38,1.788-5.363
		c1.976-0.968,4.356-0.195,5.348,1.757c0.312,0.601,7.573,13.811,32.415,13.811c24.88,0,32.117-13.249,32.414-13.818
		c1.022-1.937,3.419-2.717,5.371-1.718s2.748,3.372,1.765,5.332C294.992,482.186,285.921,499.643,255.817,499.643z"/>
	<path style="fill:#3A3847;" d="M83.939,271.805H3.997c-2.21,0-3.997-1.787-3.997-3.997c0-2.209,1.787-3.997,3.997-3.997h79.942
		c2.21,0,3.998,1.788,3.998,3.997C87.937,270.018,86.149,271.805,83.939,271.805z"/>
	<path style="fill:#3A3847;" d="M507.637,271.805h-79.943c-2.209,0-3.997-1.787-3.997-3.997c0-2.209,1.788-3.997,3.997-3.997h79.943
		c2.209,0,3.997,1.788,3.997,3.997C511.634,270.018,509.846,271.805,507.637,271.805z"/>
	<path style="fill:#3A3847;" d="M37.73,397.715c-1.374,0-2.725-0.718-3.458-1.998c-1.109-1.913-0.453-4.356,1.459-5.465
		l69.232-39.972c1.905-1.093,4.356-0.453,5.457,1.468c1.108,1.912,0.453,4.356-1.46,5.465l-69.231,39.971
		C39.096,397.544,38.409,397.715,37.73,397.715z"/>
	<path style="fill:#3A3847;" d="M404.671,185.867c-1.374,0-2.725-0.714-3.459-1.999c-1.108-1.913-0.452-4.356,1.46-5.461
		l69.232-39.971c1.912-1.097,4.356-0.457,5.457,1.464c1.108,1.912,0.452,4.356-1.46,5.461l-69.232,39.971
		C406.038,185.695,405.351,185.867,404.671,185.867z"/>
	<path style="fill:#3A3847;" d="M341.755,122.951c-0.68,0-1.366-0.172-1.999-0.535c-1.912-1.105-2.568-3.548-1.46-5.461
		l39.972-69.228c1.101-1.917,3.552-2.561,5.457-1.464c1.913,1.104,2.568,3.548,1.46,5.461l-39.972,69.228
		C344.48,122.236,343.13,122.951,341.755,122.951z"/>
	<path style="fill:#3A3847;" d="M255.817,99.928c-2.21,0-3.998-1.788-3.998-3.997V15.988c0-2.209,1.788-3.997,3.998-3.997
		c2.209,0,3.997,1.788,3.997,3.997v79.943C259.814,98.14,258.026,99.928,255.817,99.928z"/>
	<path style="fill:#3A3847;" d="M169.878,122.951c-1.374,0-2.725-0.714-3.458-1.999l-39.972-69.228
		c-1.108-1.913-0.453-4.356,1.46-5.461c1.905-1.108,4.356-0.457,5.457,1.464l39.972,69.228c1.108,1.913,0.453,4.356-1.46,5.461
		C171.244,122.779,170.557,122.951,169.878,122.951z"/>
	<path style="fill:#3A3847;" d="M473.903,397.715c-0.679,0-1.366-0.172-1.998-0.531l-69.232-39.971
		c-1.912-1.108-2.568-3.553-1.46-5.465c1.102-1.921,3.545-2.545,5.457-1.468l69.232,39.972c1.912,1.108,2.568,3.552,1.46,5.465
		C476.628,396.998,475.277,397.715,473.903,397.715z"/>
	<path style="fill:#3A3847;" d="M106.962,185.867c-0.679,0-1.366-0.172-1.999-0.535l-69.232-39.971
		c-1.913-1.105-2.568-3.549-1.459-5.461c1.101-1.917,3.552-2.549,5.457-1.464l69.231,39.971c1.913,1.105,2.568,3.548,1.46,5.461
		C109.687,185.152,108.336,185.867,106.962,185.867z"/>
	<path style="fill:#3A3847;" d="M255.817,328.086c-2.21,0-3.998-1.788-3.998-3.997V199.857c0-2.209,1.788-3.997,3.998-3.997
		c2.209,0,3.997,1.788,3.997,3.997v124.231C259.814,326.297,258.026,328.086,255.817,328.086z"/>
	<path style="fill:#3A3847;" d="M267.808,299.786c-10.344,0-15.356-9.79-15.567-10.204c-0.983-1.975-0.187-4.38,1.788-5.363
		c1.983-0.968,4.356-0.195,5.355,1.765c0.063,0.125,3.092,5.809,8.424,5.809c2.209,0,3.997,1.787,3.997,3.997
		C271.805,297.998,270.017,299.786,267.808,299.786z"/>
	<path style="fill:#3A3847;" d="M243.825,299.786c-2.209,0-3.997-1.788-3.997-3.997c0-2.21,1.788-3.997,3.997-3.997
		c5.363,0,8.4-5.746,8.431-5.809c1.007-1.952,3.389-2.748,5.364-1.741c1.959,0.991,2.755,3.373,1.771,5.34
		C259.181,289.996,254.17,299.786,243.825,299.786z"/>
	<path style="fill:#3A3847;" d="M275.802,251.82c-18.971,0-23.983-13.073-23.983-19.986c0-2.209,1.788-3.997,3.998-3.997
		c2.201,0,3.981,1.776,3.997,3.97c0.023,1.269,0.694,12.019,15.988,12.019c2.209,0,3.997,1.788,3.997,3.997
		S278.011,251.82,275.802,251.82z"/>
	<path style="fill:#3A3847;" d="M235.831,251.82c-2.209,0-3.997-1.788-3.997-3.997s1.788-3.997,3.997-3.997
		c15.81,0,15.989-11.504,15.989-11.992c0-2.209,1.788-3.997,3.998-3.997c2.209,0,3.997,1.788,3.997,3.997
		C259.814,238.747,254.802,251.82,235.831,251.82z"/>
</g>
<g>
</g>
<g>
</g>
<g>
</g>
<g>
</g>
<g>
</g>
<g>
</g>
<g>
</g>
<g>
</g>
<g>
</g>
<g>
</g>
<g>
</g>
<g>
</g>
<g>
</g>
<g>
</g>
<g>
</g>
</svg>
