<?xml version="1.0" encoding="iso-8859-1"?>
<!-- Generator: Adobe Illustrator 19.0.0, SVG Export Plug-In . SVG Version: 6.00 Build 0)  -->
<svg version="1.1" id="Layer_1" xmlns="http://www.w3.org/2000/svg" xmlns:xlink="http://www.w3.org/1999/xlink" x="0px" y="0px"
	 viewBox="0 0 512 512" style="enable-background:new 0 0 512 512;" xml:space="preserve">
<circle style="fill:#0575A5;" cx="256" cy="256" r="256"/>
<path style="fill:#025E90;" d="M507.758,302.185L330.601,125.041l-8.563-8.553c-17.306-15.373-38.682-23.657-60.385-24.888
	c-0.118-0.005-0.23-0.005-0.343-0.013c-1.572-0.087-3.154-0.131-4.721-0.141c-0.428-0.003-0.858,0.003-1.28,0.005
	c-1.277,0.01-2.563,0.038-3.84,0.1c-0.52,0.026-1.039,0.049-1.559,0.077c-1.229,0.082-2.452,0.179-3.681,0.3
	c-0.499,0.049-1.006,0.092-1.51,0.143c-1.413,0.164-2.824,0.358-4.234,0.579c-0.282,0.044-0.576,0.077-0.858,0.12
	c-1.692,0.284-3.372,0.612-5.043,0.973c-0.428,0.1-0.855,0.212-1.277,0.31c-1.236,0.289-2.465,0.594-3.686,0.924
	c-0.596,0.161-1.188,0.343-1.777,0.52c-1.06,0.305-2.12,0.632-3.167,0.98c-0.627,0.205-1.252,0.417-1.869,0.635
	c-1.039,0.369-2.071,0.755-3.098,1.155c-0.589,0.228-1.18,0.458-1.769,0.699c-1.137,0.466-2.26,0.973-3.392,1.485
	c-0.451,0.207-0.906,0.397-1.357,0.612c-1.559,0.74-3.103,1.521-4.628,2.348c-0.289,0.156-0.568,0.325-0.85,0.484
	c-1.244,0.689-2.473,1.398-3.694,2.14c-0.512,0.317-1.016,0.65-1.531,0.975c-0.983,0.625-1.953,1.265-2.916,1.925
	c-0.548,0.379-1.096,0.765-1.636,1.155c-0.919,0.663-1.841,1.352-2.747,2.048c-0.527,0.407-1.047,0.812-1.574,1.231
	c-0.947,0.76-1.889,1.554-2.816,2.363c-0.435,0.384-0.878,0.753-1.313,1.139c-1.349,1.203-2.675,2.447-3.968,3.743
	c-1.201,1.206-2.373,2.435-3.497,3.684c-0.399,0.438-0.773,0.893-1.16,1.339c-0.717,0.822-1.441,1.638-2.127,2.483
	c-0.415,0.502-0.794,1.016-1.188,1.528c-0.632,0.801-1.272,1.595-1.874,2.412c-0.399,0.548-0.773,1.108-1.165,1.667
	c-0.563,0.794-1.132,1.58-1.664,2.388c-0.387,0.576-0.73,1.162-1.103,1.743c-0.512,0.806-1.024,1.608-1.51,2.419
	c-0.351,0.586-0.668,1.188-1.006,1.782c-0.471,0.824-0.947,1.644-1.39,2.478c-0.31,0.596-0.596,1.198-0.899,1.795
	c-0.422,0.85-0.858,1.697-1.257,2.555c-0.282,0.599-0.54,1.211-0.806,1.815c-0.387,0.87-0.781,1.736-1.132,2.616
	c-0.253,0.604-0.479,1.219-0.717,1.833c-0.335,0.883-0.689,1.769-0.998,2.662c-0.218,0.614-0.415,1.236-0.617,1.853
	c-0.302,0.899-0.604,1.8-0.878,2.703c-0.182,0.625-0.351,1.257-0.527,1.889c-0.253,0.899-0.504,1.802-0.73,2.714
	c-0.161,0.643-0.302,1.288-0.451,1.935c-0.205,0.904-0.415,1.805-0.589,2.716c-0.125,0.653-0.238,1.306-0.358,1.964
	c-0.161,0.906-0.323,1.81-0.456,2.716c-0.1,0.671-0.177,1.344-0.266,2.02c-0.113,0.896-0.23,1.787-0.323,2.691
	c-0.069,0.689-0.12,1.377-0.177,2.071c-0.069,0.878-0.141,1.756-0.189,2.637c-0.036,0.719-0.056,1.434-0.077,2.145
	c-0.036,0.858-0.056,1.713-0.064,2.575c-0.005,0.74,0.008,1.485,0.02,2.227c0.008,0.829,0.028,1.654,0.056,2.483
	c0.036,0.776,0.084,1.546,0.133,2.317c0.049,0.794,0.097,1.587,0.169,2.381c0.069,0.804,0.161,1.608,0.246,2.412
	c0.092,0.755,0.177,1.505,0.274,2.258c0.113,0.842,0.246,1.679,0.379,2.516c0.118,0.709,0.23,1.416,0.358,2.125
	c0.161,0.878,0.346,1.748,0.527,2.619c0.141,0.663,0.279,1.321,0.435,1.976c0.212,0.916,0.443,1.833,0.681,2.747
	c0.161,0.599,0.317,1.201,0.484,1.802c0.274,0.955,0.561,1.915,0.863,2.862c0.169,0.543,0.343,1.085,0.527,1.628
	c0.338,1.001,0.689,1.992,1.055,2.985c0.174,0.481,0.358,0.955,0.54,1.428c0.399,1.047,0.835,2.086,1.272,3.118
	c0.174,0.412,0.351,0.822,0.532,1.231c0.484,1.08,0.983,2.156,1.503,3.223c0.174,0.351,0.343,0.699,0.52,1.047
	c0.568,1.121,1.152,2.23,1.756,3.336c0.156,0.276,0.317,0.558,0.471,0.84c0.653,1.155,1.329,2.299,2.028,3.436
	c0.141,0.218,0.274,0.435,0.407,0.653c0.753,1.188,1.526,2.36,2.324,3.525c0.105,0.148,0.212,0.299,0.317,0.453
	c0.85,1.211,1.728,2.412,2.634,3.597c0.077,0.092,0.148,0.187,0.218,0.276c0.955,1.236,1.938,2.452,2.957,3.651
	c0.036,0.036,0.072,0.074,0.1,0.108c1.72,2.017,3.505,3.994,5.407,5.896c0.422,0.42,0.878,0.781,1.3,1.193l1.073,1.075
	l49.705,49.702l0.005,0.008c-0.492,0.31-0.968,0.66-1.398,1.091c-1.503,1.495-2.268,3.474-2.268,5.45v78.405
	c0,5.632,2.156,11.3,6.477,15.578l87.549,87.57C419.886,474.785,490.34,397.763,507.758,302.185z"/>
<polygon style="fill:#34495E;" points="266.885,287.997 266.9,297.336 266.872,308.196 266.88,312.417 245.107,312.402 
	245.1,287.997 "/>
<path style="fill:#FF8E31;" d="M233.956,323.436v75.077c-0.015,5.632,2.135,11.292,6.446,15.593
	c4.306,4.298,9.958,6.467,15.606,6.467c5.64,0,11.272-2.171,15.585-6.467c4.306-4.314,6.459-9.946,6.454-15.601l0.008-75.069
	L233.956,323.436L233.956,323.436z"/>
<path style="fill:#FFCD59;" d="M244.314,323.436L244.314,323.436h-6.103v75.077c0,4.754,1.856,9.216,5.204,12.565
	c3.377,3.377,7.844,5.225,12.593,5.225c0.835-0.008,1.6-0.351,2.148-0.901c0.548-0.553,0.891-1.306,0.891-2.163
	c0-1.677-1.362-3.041-3.041-3.041c-3.118,0.008-6.062-1.216-8.274-3.436c-2.204-2.196-3.42-5.128-3.42-8.246v-75.08H244.314z"/>
<g>
	<path style="fill:#283A4D;" d="M278.052,323.436h-44.096v-3.308c-0.008-1.979,0.745-3.948,2.245-5.458
		c1.518-1.51,3.492-2.268,5.458-2.268l28.682,0.015c1.969-0.015,3.94,0.742,5.45,2.248c1.498,1.51,2.271,3.489,2.255,5.45
		L278.052,323.436z"/>
	<path style="fill:#283A4D;" d="M326.477,120.625c-38.922-38.922-102.031-38.93-140.961,0c-38.943,38.932-38.935,102.047,0,140.966
		c38.93,38.943,102.039,38.93,140.982,0.015C365.412,222.669,365.412,159.557,326.477,120.625z"/>
</g>
<path style="fill:#5D6D7E;" d="M318.858,253.975c-34.711,34.711-90.998,34.719-125.714,0c-34.716-34.716-34.716-91,0-125.709
	c34.708-34.716,91-34.716,125.714-0.008C353.58,162.98,353.58,219.259,318.858,253.975z"/>
<path style="fill:#F2F9FF;" d="M255.992,107.709c-46.057,0-83.407,37.34-83.407,83.402c0,46.054,37.356,83.415,83.4,83.415
	c46.085,0,83.42-37.363,83.42-83.415C339.412,145.05,302.065,107.702,255.992,107.709z"/>
<path style="fill:#C1D354;" d="M256,131.333c-33.009,0-59.786,26.78-59.786,59.779c0,33.019,26.778,59.773,59.786,59.773
	c33.021,0,59.781-26.755,59.781-59.773C315.781,158.113,289.021,131.333,256,131.333z"/>
<path style="fill:#34495E;" d="M286.643,191.112c0,16.932-13.716,30.638-30.643,30.638s-30.643-13.706-30.643-30.638
	c0-16.911,13.716-30.638,30.643-30.638C272.924,160.474,286.643,174.2,286.643,191.112z"/>
<g>
	<path style="fill:#FFFFFF;" d="M230.331,139.156c5.716,5.706,4.46,16.238-2.796,23.501c-7.268,7.252-17.789,8.507-23.493,2.783
		c-5.724-5.706-4.475-16.233,2.788-23.498C214.093,134.692,224.622,133.435,230.331,139.156z"/>
	<path style="fill:#FFFFFF;" d="M250.557,173.315c2.691,2.685,2.099,7.634-1.313,11.044c-3.412,3.42-8.358,4.014-11.054,1.313
		c-2.688-2.688-2.099-7.626,1.313-11.044C242.931,171.208,247.875,170.621,250.557,173.315z"/>
</g>
<g>
</g>
<g>
</g>
<g>
</g>
<g>
</g>
<g>
</g>
<g>
</g>
<g>
</g>
<g>
</g>
<g>
</g>
<g>
</g>
<g>
</g>
<g>
</g>
<g>
</g>
<g>
</g>
<g>
</g>
</svg>
