<?xml version="1.0" encoding="iso-8859-1"?>
<!-- Generator: Adobe Illustrator 19.0.0, SVG Export Plug-In . SVG Version: 6.00 Build 0)  -->
<svg version="1.1" id="Layer_1" xmlns="http://www.w3.org/2000/svg" xmlns:xlink="http://www.w3.org/1999/xlink" x="0px" y="0px"
	 viewBox="0 0 460 460" style="enable-background:new 0 0 460 460;" xml:space="preserve">
<g id="XMLID_333_">
	<circle id="XMLID_38_" style="fill:#FE843F;" cx="230" cy="230" r="230"/>
	<path id="XMLID_334_" style="fill:#487ED2;" d="M230,0C102.974,0,0,102.975,0,230c0,99.044,62.608,183.461,150.405,215.848
		l294.499-297.93C411.853,61.434,328.108,0,230,0z"/>
	<path id="XMLID_36_" style="fill:#1D54BD;" d="M444.903,147.918l-66.411-66.411L82.278,377.722l68.127,68.127
		C175.208,454.998,202.019,460,230,460c127.026,0,230-102.975,230-230C460,201.08,454.647,173.414,444.903,147.918z"/>
	<path id="XMLID_35_" style="fill:#FFC85F;" d="M150.475,266.394c-16.451,3.486-32.116,11.607-44.893,24.385
		c-23.555,23.555-31.321,56.918-23.304,86.943l55.488-41.346l41.346-55.488L150.475,266.394z"/>
	<path id="XMLID_34_" style="fill:#FFAE46;" d="M82.278,377.722c30.025,8.018,63.388,0.251,86.943-23.304
		c12.777-12.777,20.898-28.442,24.385-44.893l-14.495-28.637L82.278,377.722z"/>
	<polygon id="XMLID_33_" style="fill:#E0F8FF;" points="194.645,208.787 230,230 251.213,265.355 193.606,309.525 150.475,266.394 	
		"/>
	<polygon id="XMLID_32_" style="fill:#48D9FF;" points="208.787,194.645 244.142,215.858 265.355,251.213 251.213,265.355 
		194.645,208.787 	"/>
	<path id="XMLID_3_" style="fill:#FC5A37;" d="M380.468,107.495c5.744-7.84,5.107-18.904-1.976-25.987s-18.147-7.72-25.973-1.955
		c-0.014-0.021-143.732,115.092-143.732,115.092l56.569,56.569L380.468,107.495z"/>
</g>
<g>
</g>
<g>
</g>
<g>
</g>
<g>
</g>
<g>
</g>
<g>
</g>
<g>
</g>
<g>
</g>
<g>
</g>
<g>
</g>
<g>
</g>
<g>
</g>
<g>
</g>
<g>
</g>
<g>
</g>
</svg>
