<?xml version="1.0" encoding="iso-8859-1"?>
<!-- Generator: Adobe Illustrator 19.0.0, SVG Export Plug-In . SVG Version: 6.00 Build 0)  -->
<svg version="1.1" id="Layer_1" xmlns="http://www.w3.org/2000/svg" xmlns:xlink="http://www.w3.org/1999/xlink" x="0px" y="0px"
	 viewBox="0 0 496.2 496.2" style="enable-background:new 0 0 496.2 496.2;" xml:space="preserve">
<path style="fill:#FABC3D;" d="M496.2,248.1C496.2,111.1,385.1,0,248.1,0S0,111.1,0,248.1s111.1,248.1,248.1,248.1
	S496.2,385.1,496.2,248.1z"/>
<polygon style="fill:#56432F;" points="386.2,270.4 106.7,270.4 48.1,305.7 106.7,344 386.2,344 444.8,305.7 "/>
<polygon style="fill:#727272;" points="347.3,277 114.4,277 81,297.5 373.2,297.5 "/>
<g>
	<rect x="120" y="217" style="fill:#ADADAD;" width="6.3" height="61.4"/>
	<path style="fill:#ADADAD;" d="M126.9,251.1c0,2.1-1.7,3.7-3.7,3.7l0,0c-2.1,0-3.7-1.7-3.7-3.7v-4.4c0-2.1,1.7-3.7,3.7-3.7l0,0
		c2.1,0,3.7,1.7,3.7,3.7V251.1z"/>
</g>
<rect x="120" y="278.4" style="fill:#D8D7D6;" width="6.3" height="0.8"/>
<rect x="120" y="276.7" style="fill:#BCBCBC;" width="6.3" height="1.7"/>
<polygon style="fill:#757575;" points="124.2,269.3 123.2,274.8 122.1,269.3 122.1,217 124.2,217 "/>
<ellipse style="fill:#56432F;" cx="431.5" cy="257.4" rx="15.8" ry="8"/>
<g>
	<path style="fill:#262625;" d="M334.5,226.3l66.2-0.1v7.6l-45.2,3.8c0,0-8.8-0.5-8.8,8l-1.3,34.7h-13L334.5,226.3z"/>
	<path style="fill:#262625;" d="M397.6,235.2c0,0,4.7,6.5,3.8,26.3h7.4v-8.8h-3.3c0,0,0.5-19.4-5-21.5L397.6,235.2z"/>
</g>
<rect x="407.8" y="252.7" style="fill:#56432F;" width="21.6" height="8.8"/>
<path style="fill:#282826;" d="M401,147c0,3.6-3,6.5-6.8,6.5h-69.3c-3.8,0-6.8-2.9-6.8-6.5l0,0c0-3.6,3-6.5,6.8-6.5h69.3
	C398,140.5,401,143.4,401,147L401,147z"/>
<rect x="281.3" y="90.1" style="fill:#A3D5E0;" width="30.4" height="35.3"/>
<rect x="300.6" y="90.1" style="fill:#D9EAED;" width="5.8" height="35.3"/>
<polygon style="fill:#3A3A38;" points="298.5,79.4 296.5,78.7 294.7,79.4 294.7,86.8 298.5,86.8 "/>
<g>
	<path style="fill:#A79587;" d="M296.5,83.3c-6.5,0-15.2,6.8-15.2,6.8h30.4C311.7,90.1,303,83.3,296.5,83.3z"/>
	<rect x="281.3" y="122" style="fill:#A79587;" width="30.4" height="5.5"/>
</g>
<g>
	<path style="fill:#757575;" d="M126.3,234.9c0,0-1.4,0.4-3.2,0.4s-3.2-0.4-3.2-0.4v-12.6h6.3v12.6H126.3z"/>
	<path style="fill:#757575;" d="M126.3,106.6c0,0-1.4,0.4-3.2,0.4s-3.2-0.4-3.2-0.4V94h6.3v12.6H126.3z"/>
</g>
<path style="fill:#3A3A38;" d="M110.8,223.3V101.4c0,0,9.3-1.3,18.5,2.9c9.3,4.2,29.9,28.2,38.3,30.3c8.4,2.1,43.3,4.2,58.5,2.9
	c15.1-1.3,46.3-10.1,54.7-10.9c0,0,40.4-7.6,50.5,13.5c0,0,5.9,45.4,5,80.7s-1.7,69-1.7,69h-63.1c0,0-11.8,1.7-11.8-8.4
	c0,0,8.8-19.3,10.5-24.4c0,0,10.9-21,2.9-56.8c-2.1-9.6-17.7-21.9-39.9-24c-22.3-2.1-63.5-6.3-63.5-6.3l-27.3,11.8
	c0,0-6.7,32-9.3,35.7C133,217.4,133.9,225,110.8,223.3z"/>
<path style="fill:#262625;" d="M280.2,204.8c-2.5-29.4-54.2-32.4-54.2-32.4c-7.6-1.7-57.6-5.5-57.6-5.5l-32,12.6l-8.2,42.5
	c5.2-1.8,4.9-4.7,4.9-4.7c2.5-3.8,9.3-35.7,9.3-35.7l27.3-11.8c0,0,41.2,4.2,63.5,6.3s37.8,14.4,39.9,24c8,35.7-2.9,56.8-2.9,56.8
	c-1.7,5-10.5,24.4-10.5,24.4c0,3.8,1.7,6,3.8,7.1C288.7,246.3,280.2,204.8,280.2,204.8z"/>
<circle style="fill:#363833;" cx="117.5" cy="186.3" r="11.8"/>
<circle style="fill:#595B56;" cx="117.5" cy="186.3" r="7.1"/>
<ellipse style="fill:#D7D1C5;" cx="308.8" cy="230.7" rx="13.7" ry="18.7"/>
<g>
	<rect x="125.1" y="228.3" style="fill:#757575;" width="6.7" height="2.2"/>
	<ellipse style="fill:#757575;" cx="130.7" cy="229.3" rx="1.7" ry="4"/>
</g>
<g>
	<rect x="113.8" y="263.8" style="fill:#ADADAD;" width="6.7" height="2.2"/>
	<ellipse style="fill:#ADADAD;" cx="114.9" cy="265" rx="1.7" ry="4"/>
</g>
<path style="fill:#C6C6C6;" d="M126.3,279.1H120v3.8h2.3c0-1.3,0.1-2.1,0.9-2.1c0.8,0,0.9,0.9,0.9,2.1h2.2L126.3,279.1L126.3,279.1z
	"/>
<path style="fill:#5B5B5A;" d="M126.3,282.8H120v0.8h2.3c0-0.3,0-0.5,0-0.7h1.8c0,0.2,0,0.5,0,0.7h2.2V282.8z"/>
<path style="fill:#727272;" d="M123.2,280.8c-0.8,0-0.9,0.9-0.9,2.1c0,0.2,0,0.5,0,0.7h1.8c0-0.3,0-0.5,0-0.7
	C124.1,281.6,124,280.8,123.2,280.8z"/>
<path style="fill:#303030;" d="M386.1,145.9c0-3.7,3.4-6.7,7.6-6.7l0,0c4.2,0,7.6,3,7.6,6.7v85.3c0,3.7-3.4,6.7-7.6,6.7l0,0
	c-4.2,0-7.6-3-7.6-6.7V145.9z"/>
<path style="fill:#141414;" d="M386.1,145.9c0-3.7,3.4-6.7,7.6-6.7l0,0v98.7l0,0c-4.2,0-7.6-3-7.6-6.7V145.9z"/>
<rect x="48.1" y="305.7" style="fill:#53372B;" width="396.7" height="53"/>
<path style="fill:#AAAAAA;" d="M275.6,136.7c0,0,45.8-14.7,50,18.5C325.6,155.2,294.5,149.3,275.6,136.7z"/>
<g>
	<rect x="121.1" y="87" style="fill:#757575;" width="3.8" height="11.7"/>
	<ellipse style="fill:#757575;" cx="123" cy="89" rx="6.9" ry="2.9"/>
</g>
<path style="fill:#565656;" d="M337.6,116.1c0-3.2,3.8-5.8,8.5-5.8l0,0c4.7,0,8.5,2.6,8.5,5.8v61.7c0,3.2-3.8,5.8-8.5,5.8l0,0
	c-4.7,0-8.5-2.6-8.5-5.8V116.1z"/>
<path style="fill:#141414;" d="M346,110.3v73.2c4.7,0,8.5-2.6,8.5-5.8v-61.6C354.5,112.9,350.7,110.3,346,110.3z"/>
<path style="fill:#B5A8A0;" d="M358.9,100.7c0-4.7,5.4-8.6,12.1-8.6l0,0c6.7,0,12.1,3.8,12.1,8.6v92.2c0,4.7-5.4,8.6-12.1,8.6l0,0
	c-6.7,0-12.1-3.8-12.1-8.6V100.7z"/>
<path style="fill:#A79587;" d="M371,92.1v109.4c6.7,0,12.1-3.8,12.1-8.6v-92.2C383,96,377.6,92.1,371,92.1z"/>
<g>
</g>
<g>
</g>
<g>
</g>
<g>
</g>
<g>
</g>
<g>
</g>
<g>
</g>
<g>
</g>
<g>
</g>
<g>
</g>
<g>
</g>
<g>
</g>
<g>
</g>
<g>
</g>
<g>
</g>
</svg>
