<?xml version="1.0" encoding="iso-8859-1"?>
<!-- Generator: Adobe Illustrator 19.0.0, SVG Export Plug-In . SVG Version: 6.00 Build 0)  -->
<svg version="1.1" id="Capa_1" xmlns="http://www.w3.org/2000/svg" xmlns:xlink="http://www.w3.org/1999/xlink" x="0px" y="0px"
	 viewBox="0 0 512 512" style="enable-background:new 0 0 512 512;" xml:space="preserve">
<path style="fill:#FCC72E;" d="M512,256c0,70.113-28.181,133.653-73.853,179.879c-25.819,26.154-57.229,46.77-92.296,59.904
	c-10.564,3.971-21.473,7.252-32.653,9.801C294.807,509.785,275.665,512,256,512c-22.58,0-44.471-2.926-65.317-8.411
	c-40.26-10.585-76.643-30.741-106.58-57.887C32.444,398.869,0,331.222,0,256C0,114.615,114.615,0,256,0S512,114.615,512,256z"/>
<path style="fill:#FFD367;" d="M455.717,199.717c0,54.698-21.985,104.268-57.616,140.332
	c-20.142,20.404-44.646,36.487-72.004,46.734c-8.241,3.098-16.752,5.657-25.474,7.647c-14.346,3.277-29.281,5.005-44.622,5.005
	c-17.616,0-34.694-2.282-50.957-6.562c-31.409-8.258-59.792-23.983-83.148-45.16c-40.302-36.536-65.613-89.311-65.613-147.994
	C56.283,89.416,145.7,0,256,0S455.717,89.416,455.717,199.717z"/>
<g>
	<path style="fill:#535E8A;" d="M190.683,236.962v266.627c-40.26-10.585-76.643-30.741-106.58-57.887V236.962H190.683z"/>
	<path style="fill:#535E8A;" d="M185.98,17.774v76.564c0,26.833-21.753,48.586-48.586,48.586l0,0
		c-26.833,0-48.586-21.753-48.586-48.586V17.774C42.807,36.848,10.446,82.184,10.446,135.085
		c0,70.112,56.837,126.949,126.949,126.949s126.949-56.837,126.949-126.949C264.344,82.184,231.983,36.848,185.98,17.774z"/>
</g>
<g>
	<polyline style="fill:#323B5B;" points="99.952,458.992 99.952,250.546 84.104,250.143 84.104,445.701 	"/>
	<path style="fill:#323B5B;" d="M100.159,250.426c-43.6-20.097-73.865-64.182-73.865-115.341c0-46.588,25.105-87.299,62.516-109.382
		v-7.93C42.807,36.848,10.446,82.184,10.446,135.085c0,57.079,37.67,105.359,89.505,121.337L100.159,250.426z"/>
</g>
<rect x="362.569" y="177.622" style="fill:#EDEDED;" width="42.316" height="227.255"/>
<rect x="362.569" y="177.622" style="fill:#BDBDBD;" width="15.515" height="227.255"/>
<polygon style="fill:#EDEDED;" points="429.966,127.99 399.143,24.551 368.32,24.551 337.497,127.99 362.573,180.752 
	404.89,180.752 "/>
<path style="fill:#FF4F6F;" d="M438.147,435.879c-33.604,34.032-76.675,58.692-124.949,69.705v-32.768
	c0-27.836,22.57-50.395,50.395-50.395h40.27C417.102,422.421,429.15,427.53,438.147,435.879z"/>
<path style="fill:#E33958;" d="M396.246,422.421c-27.836,0-50.395,22.559-50.395,50.395v22.967
	c-10.564,3.971-21.473,7.252-32.653,9.801v-32.768c0-27.836,22.57-50.395,50.395-50.395H396.246z"/>
<polygon style="fill:#BDBDBD;" points="378.088,180.752 347.254,126.715 371.984,33.719 401.875,33.719 399.143,24.551 
	368.32,24.551 337.497,127.99 362.573,180.752 372.101,186.739 "/>
<path style="fill:#FF4F6F;" d="M438.589,427.645H328.874c-8.656,0-15.673-7.018-15.673-15.673l0,0
	c0-8.656,7.018-15.673,15.673-15.673h109.714c8.656,0,15.673,7.018,15.673,15.673l0,0
	C454.262,420.628,447.245,427.645,438.589,427.645z"/>
<path style="fill:#E33958;" d="M346.641,411.972c0-8.656,7.018-15.673,15.673-15.673h-33.44c-8.656,0-15.673,7.018-15.673,15.673
	c0,8.656,7.018,15.673,15.673,15.673h33.44C353.658,427.645,346.641,420.628,346.641,411.972z"/>
<g>
</g>
<g>
</g>
<g>
</g>
<g>
</g>
<g>
</g>
<g>
</g>
<g>
</g>
<g>
</g>
<g>
</g>
<g>
</g>
<g>
</g>
<g>
</g>
<g>
</g>
<g>
</g>
<g>
</g>
</svg>
